<?xml version="1.0" encoding="utf-8"?>
<!-- Generator: Adobe Illustrator 26.0.1, SVG Export Plug-In . SVG Version: 6.00 Build 0)  -->
<svg version="1.1" id="Vector" xmlns="http://www.w3.org/2000/svg" xmlns:xlink="http://www.w3.org/1999/xlink" x="0px" y="0px"
	 viewBox="0 0 1000 1000" style="enable-background:new 0 0 1000 1000;" xml:space="preserve">
<style type="text/css">
	.st0{fill:none;}
	.st1{fill:#E6E6E6;}
	.st2{fill:#39B54A;}
	.st3{fill:#29ABE2;}
</style>
<rect class="st0" width="1000" height="1000"/>
<g id="Logo">
	<g id="Middle_00000009585871247675258800000016408142542322368130_">
		<polygon class="st1" points="591.46,441.46 562.19,470.73 500,408.54 379.27,529.27 350,500 379.27,470.73 408.54,441.46 500,350 
					"/>
		<polygon class="st1" points="650,500 620.73,529.27 591.46,558.54 500,650 408.54,558.54 437.81,529.27 500,591.46 562.19,529.27 
			591.46,500 620.73,470.73 		"/>
	</g>
	<polygon id="Left" class="st2" points="467.08,500 437.81,529.27 408.54,558.54 317.08,650 167.08,500 317.08,350 408.54,441.46 
		379.27,470.73 317.08,408.54 225.62,500 317.08,591.46 437.81,470.73 	"/>
	<polygon id="Right_00000109752002144747898250000013421412665082863030_" class="st3" points="832.92,500 682.92,650 
		591.46,558.54 620.73,529.27 682.92,591.46 774.38,500 682.92,408.54 620.73,470.73 591.46,500 562.19,529.27 532.92,500 
		682.92,350 	"/>
</g>
</svg>
